<?xml version="1.0" encoding="utf-8"?>
<!-- Generator: Adobe Illustrator 23.0.2, SVG Export Plug-In . SVG Version: 6.00 Build 0)  -->
<svg version="1.1" id="Layer_1" xmlns="http://www.w3.org/2000/svg" xmlns:xlink="http://www.w3.org/1999/xlink" x="0px" y="0px"
	 viewBox="0 0 1310 172.8" style="enable-background:new 0 0 1310 172.8;" xml:space="preserve">
<style type="text/css">
	.st0{fill:#404343;}
	.st1{fill:none;stroke:#404343;stroke-width:10;stroke-miterlimit:10;}
	.st2{fill:none;stroke:#72C594;stroke-width:8.0781;stroke-miterlimit:10;}
</style>
<g>
	<g>
		<path class="st0" d="M535.1,80.9c-0.9,5.3-6,9.3-12.7,9.3c-8.7,0-14-6.1-14-15.6c0-9.5,5.4-15.9,13.8-15.9c8.2,0,13.3,6,13.3,15.2
			v1.9h-21.9v0.3c0,5.8,3.4,9.7,8.9,9.7c3.9,0,6.7-2,7.6-4.8H535.1z M513.7,71.8h16.6c-0.1-5.1-3.3-8.7-8.1-8.7
			C517.4,63.1,514,66.7,513.7,71.8z"/>
		<path class="st0" d="M540.6,59.2h4.8V64h0.1c1.7-3.3,5-5.4,9.7-5.4c6.7,0,10.5,4.3,10.5,11.2v19.8h-5.1V70.8c0-4.9-2.3-7.6-7-7.6
			c-4.8,0-7.9,3.4-7.9,8.6v17.9h-5.1V59.2z"/>
		<path class="st0" d="M592.6,69.2c-0.7-3.3-3.3-6-7.8-6c-5.3,0-8.8,4.4-8.8,11.3c0,7.1,3.6,11.3,8.9,11.3c4.2,0,6.9-2.2,7.8-5.9h5
			c-0.8,6.1-5.9,10.3-12.8,10.3c-8.4,0-14.1-5.9-14.1-15.8c0-9.6,5.6-15.8,14-15.8c7.6,0,12.2,5,12.8,10.5H592.6z"/>
		<path class="st0" d="M602.3,59.2h4.8v5h0.1c1-3.4,3.8-5.5,7.4-5.5c0.9,0,1.6,0.1,2.1,0.2v5c-0.4-0.1-1.5-0.3-2.7-0.3
			c-4,0-6.5,2.8-6.5,7.1v19h-5.1V59.2z"/>
		<path class="st0" d="M621.2,100.9v-4.3c0.6,0.1,1.3,0.1,2,0.1c2.8,0,4.4-1.4,5.6-4.9l0.7-2.1l-11.2-30.5h5.4l8.4,25.4h0.1
			l8.4-25.4h5.4l-12,32.6c-2.6,7.1-5.1,9.3-10.6,9.3C622.7,101,621.7,101,621.2,100.9z"/>
		<path class="st0" d="M677.8,74.4c0,9.6-5.2,15.8-12.9,15.8c-4.4,0-7.9-2.1-9.7-5.5h-0.1v15.1H650V59.2h4.8v5.2h0.1
			c1.9-3.4,5.4-5.7,9.8-5.7C672.5,58.6,677.8,64.9,677.8,74.4z M672.6,74.4c0-6.9-3.4-11.3-8.8-11.3c-5.2,0-8.7,4.5-8.7,11.3
			c0,6.8,3.5,11.3,8.7,11.3C669.2,85.7,672.6,81.3,672.6,74.4z"/>
		<path class="st0" d="M689.7,51.8v7.4h5.9v4.2h-5.9v18.1c0,2.8,1.2,4,3.8,4c0.6,0,1.8-0.1,2.1-0.1v4.3c-0.6,0.1-2,0.2-3.2,0.2
			c-5.6,0-7.8-2.3-7.8-8.1V63.4H680v-4.2h4.5v-7.4H689.7z"/>
		<path class="st0" d="M700.6,50.6c0-1.8,1.4-3.2,3.2-3.2c1.8,0,3.2,1.4,3.2,3.2c0,1.8-1.4,3.2-3.2,3.2
			C702.1,53.8,700.6,52.3,700.6,50.6z M701.3,59.2h5.1v30.5h-5.1V59.2z"/>
		<path class="st0" d="M711.8,74.4c0-9.7,5.7-15.8,14.1-15.8c8.4,0,14.1,6,14.1,15.8c0,9.7-5.7,15.8-14.1,15.8
			C717.5,90.2,711.8,84.1,711.8,74.4z M734.8,74.4c0-7.2-3.5-11.3-8.9-11.3s-8.9,4.1-8.9,11.3s3.5,11.3,8.9,11.3
			S734.8,81.6,734.8,74.4z"/>
		<path class="st0" d="M745.1,59.2h4.8V64h0.1c1.7-3.3,5-5.4,9.7-5.4c6.7,0,10.5,4.3,10.5,11.2v19.8h-5.1V70.8c0-4.9-2.3-7.6-7-7.6
			c-4.8,0-7.9,3.4-7.9,8.6v17.9h-5.1V59.2z"/>
	</g>
	<rect x="5" y="20.8" class="st1" width="445.1" height="100.5"/>
	<g>
		<path class="st0" d="M885.6,42.3l-2.8,14.9h-5.4l4-14.9H885.6z M897,42.3l-2.8,14.9h-5.4l4-14.9H897z"/>
		<path class="st0" d="M908.1,73.2c0.6,4.5,4.8,7.3,10.9,7.3c5.7,0,9.9-3,9.9-7.2c0-3.5-2.3-5.9-8.2-7.2l-4.7-1
			c-8.5-1.8-12.1-5.7-12.1-11.7c0-7,6.2-11.9,14.9-11.9c8.4,0,14.5,5,14.8,12.2h-5.3c-0.5-4.6-4.1-7.5-9.6-7.5
			c-5.3,0-9.3,2.6-9.3,6.9c0,3.3,2.3,5.6,8,6.9l4.7,1c8.8,1.9,12.3,5.4,12.3,11.4c0,7.8-6.2,12.7-15.6,12.7c-9.2,0-15.4-4.7-15.9-12
			H908.1z"/>
		<path class="st0" d="M940.5,84.5V42.3h5.1l23.1,33.2h0.3V42.3h5.2v42.3h-5.1l-23.1-33.1h-0.3v33.1H940.5z"/>
		<path class="st0" d="M981.2,45.5c0-1.8,1.4-3.2,3.2-3.2c1.8,0,3.2,1.4,3.2,3.2c0,1.8-1.4,3.2-3.2,3.2
			C982.7,48.7,981.2,47.2,981.2,45.5z M981.9,54.1h5.1v30.5h-5.1V54.1z"/>
		<path class="st0" d="M995.5,58.3h-4.2v-4.2h4.2v-3.4c0-5.9,2.7-8.6,8.3-8.6c1.1,0,2.4,0.1,3.1,0.2v4.1c-0.6-0.1-1.5-0.2-2.3-0.2
			c-2.8,0-4.1,1.5-4.1,4.5v3.4h6.2v4.2h-6.2v26.3h-5.1V58.3z"/>
		<path class="st0" d="M1010.3,87.1h5.2c1,2.8,4,4.6,7.8,4.6c5.3,0,8.5-3,8.5-7.6v-4.8h-0.1c-1.9,3.3-5.5,5.5-9.8,5.5
			c-7.8,0-12.9-6.1-12.9-15.6c0-9.6,5.1-15.6,13-15.6c4.3,0,7.9,2.1,9.9,5.7h0.1v-5.1h4.9v29.9c0,7.3-5.4,12.1-13.8,12.1
			C1016.5,96,1011.2,92.3,1010.3,87.1z M1031.9,69.2c0-6.7-3.5-11.2-8.8-11.2c-5.2,0-8.7,4.3-8.7,11.2c0,6.8,3.4,11.1,8.7,11.1
			C1028.3,80.3,1031.9,75.9,1031.9,69.2z"/>
		<path class="st0" d="M1044.4,84.5V42.3h5.1l23.1,33.2h0.3V42.3h5.2v42.3h-5.1l-23.1-33.1h-0.3v33.1H1044.4z"/>
		<path class="st0" d="M1085.1,45.5c0-1.8,1.4-3.2,3.2-3.2c1.8,0,3.2,1.4,3.2,3.2c0,1.8-1.4,3.2-3.2,3.2
			C1086.6,48.7,1085.1,47.2,1085.1,45.5z M1085.8,54.1h5.1v30.5h-5.1V54.1z"/>
		<path class="st0" d="M1115,82.6h-4.7V70.2h-11.8v-4.7h11.8V53.1h4.7v12.4h11.8v4.7H1115V82.6z"/>
		<path class="st0" d="M1159.1,84.5h-4.8v-5h-0.1c-1.8,3.5-5,5.5-9.7,5.5c-6.7,0-10.5-4.3-10.5-11.2V54.1h5.1v18.9
			c0,5,2.3,7.6,7,7.6c5,0,7.9-3.4,7.9-8.6V54.1h5.1V84.5z"/>
		<path class="st0" d="M1184.5,54.1h6.2l-13.2,13.2l13.6,17.3h-5.9l-11.3-14.2l-2.8,2.7v11.5h-5.1V42.3h5.1v25.3L1184.5,54.1z"/>
		<path class="st0" d="M1194.1,63.4c0-13.2,5.8-21.8,15.6-21.8s15.5,8.5,15.5,21.8c0,13.4-5.7,21.9-15.5,21.9
			C1199.8,85.2,1194.1,76.8,1194.1,63.4z M1219.9,63.4c0-10.4-3.7-17.2-10.2-17.2s-10.3,6.9-10.3,17.2c0,10.5,3.7,17.3,10.3,17.3
			C1216.3,80.6,1219.9,73.9,1219.9,63.4z"/>
		<path class="st0" d="M1232.4,63.8v-4.5h27.1v4.5H1232.4z M1232.4,76.5v-4.5h27.1v4.5H1232.4z"/>
		<path class="st0" d="M1267.9,57.2l2.8-14.9h5.4l-4,14.9H1267.9z M1279.2,57.2l2.8-14.9h5.4l-4,14.9H1279.2z"/>
	</g>
	<g>
		<path class="st0" d="M186.7,159.9c0,5-2.5,8-6.4,8c-2.3,0-4-1.1-4.9-2.8h-0.1v7.7h-3.6v-20.6h3.6v2.7h0.1c0.9-1.8,2.6-2.9,4.9-2.9
			C184.2,151.9,186.7,154.9,186.7,159.9z M183,159.9c0-3.1-1.5-5-3.8-5c-2.3,0-3.8,2-3.8,5c0,3,1.5,5,3.8,5
			C181.5,164.9,183,163,183,159.9z"/>
		<path class="st0" d="M189.2,146.5h3.6v21.1h-3.6V146.5z"/>
		<path class="st0" d="M195.3,163.2c0-2.8,2.1-4.4,5.9-4.6l4.1-0.2v-1.1c0-1.6-1.1-2.6-2.9-2.6c-1.7,0-2.8,0.8-3.1,2.1H196
			c0.2-2.9,2.6-5,6.6-5c3.9,0,6.4,2,6.4,5.2v10.7h-3.5v-2.5h-0.1c-0.9,1.7-2.8,2.7-4.8,2.7C197.5,167.9,195.3,166,195.3,163.2z
			 M205.3,161.9v-1.2l-3.6,0.2c-1.8,0.1-2.8,0.9-2.8,2.1c0,1.3,1.1,2.1,2.6,2.1C203.7,165.2,205.3,163.8,205.3,161.9z"/>
		<path class="st0" d="M211.7,147.8c0-1.1,0.9-2,2-2c1.1,0,2,0.9,2,2c0,1.1-0.9,2-2,2C212.6,149.8,211.7,148.9,211.7,147.8z
			 M211.9,152.1h3.6v15.5h-3.6V152.1z"/>
		<path class="st0" d="M218.6,152.1h3.5v2.7h0.1c0.8-1.8,2.5-3,4.9-3c3.4,0,5.4,2.2,5.4,5.8v10h-3.6v-9.3c0-2.2-1-3.4-3.1-3.4
			c-2.1,0-3.4,1.5-3.4,3.7v9h-3.6V152.1z"/>
		<path class="st0" d="M240,148.5v3.6h2.9v2.8H240v8.1c0,1.3,0.6,1.9,1.9,1.9c0.3,0,0.8,0,1-0.1v2.8c-0.4,0.1-1.1,0.1-1.9,0.1
			c-3.4,0-4.7-1.2-4.7-4.2V155h-2.2v-2.8h2.2v-3.6H240z"/>
		<path class="st0" d="M258.9,163c-0.5,2.9-3.2,5-6.9,5c-4.7,0-7.5-3.1-7.5-8c0-4.9,2.8-8.1,7.3-8.1c4.4,0,7.2,3.1,7.2,7.8v1.2
			h-10.9v0.2c0,2.5,1.5,4.2,3.9,4.2c1.7,0,3-0.8,3.4-2.1H258.9z M248.2,158.4h7.3c-0.1-2.2-1.5-3.7-3.6-3.7
			C249.8,154.6,248.3,156.2,248.2,158.4z"/>
		<path class="st0" d="M267.1,162.1l-3.2,5.6H260l5-7.7l-5-7.8h4.1l3.1,5.4h0.1l3.1-5.4h4l-5,7.7l4.9,7.9h-4L267.1,162.1
			L267.1,162.1z"/>
		<path class="st0" d="M280.9,148.5v3.6h2.9v2.8h-2.9v8.1c0,1.3,0.6,1.9,1.9,1.9c0.3,0,0.8,0,1-0.1v2.8c-0.4,0.1-1.1,0.1-1.9,0.1
			c-3.4,0-4.7-1.2-4.7-4.2V155h-2.2v-2.8h2.2v-3.6H280.9z"/>
	</g>
	<g>
		<path class="st0" d="M1026.9,152.6c-0.3-1.7-1.5-2.9-3.4-2.9c-2.3,0-3.8,1.9-3.8,5.1c0,3.3,1.5,5.1,3.8,5.1c1.8,0,3-1.1,3.4-2.8
			h3.4c-0.3,3.5-3,5.8-6.9,5.8c-4.5,0-7.5-3-7.5-8.1c0-5,2.9-8.1,7.4-8.1c4.1,0,6.6,2.6,6.9,5.9H1026.9z"/>
		<path class="st0" d="M1032.5,142.7c0-1.1,0.9-2,2-2c1.1,0,2,0.9,2,2c0,1.1-0.9,2-2,2C1033.4,144.7,1032.5,143.8,1032.5,142.7z
			 M1032.6,147.1h3.6v15.5h-3.6V147.1z"/>
		<path class="st0" d="M1054.3,154.8c0,5-2.5,8-6.4,8c-2.3,0-4-1.1-4.9-2.8h-0.1v7.7h-3.6v-20.6h3.6v2.7h0.1
			c0.9-1.8,2.6-2.9,4.9-2.9C1051.8,146.8,1054.3,149.9,1054.3,154.8z M1050.6,154.8c0-3.1-1.5-5-3.8-5c-2.3,0-3.8,2-3.8,5
			c0,3,1.5,5,3.8,5C1049.1,159.9,1050.6,157.9,1050.6,154.8z"/>
		<path class="st0" d="M1056.8,141.5h3.6v8.3h0.1c0.8-1.9,2.5-3,4.9-3c3.4,0,5.4,2.3,5.4,5.8v10h-3.6v-9.3c0-2.2-1.1-3.5-3.2-3.5
			c-2.2,0-3.5,1.5-3.5,3.8v8.9h-3.6V141.5z"/>
		<path class="st0" d="M1087.4,158c-0.5,2.9-3.2,5-6.9,5c-4.7,0-7.5-3.1-7.5-8c0-4.9,2.8-8.1,7.3-8.1c4.4,0,7.2,3.1,7.2,7.8v1.2
			h-10.9v0.2c0,2.5,1.5,4.2,3.9,4.2c1.7,0,3-0.8,3.4-2.1H1087.4z M1076.7,153.3h7.3c-0.1-2.2-1.5-3.7-3.6-3.7
			C1078.4,149.6,1076.9,151.1,1076.7,153.3z"/>
		<path class="st0" d="M1089.9,147.1h3.5v2.7h0.1c0.5-1.9,1.9-3,3.7-3c0.5,0,0.9,0.1,1.1,0.1v3.3c-0.3-0.1-0.9-0.2-1.5-0.2
			c-2.1,0-3.3,1.3-3.3,3.5v9h-3.6V147.1z"/>
		<path class="st0" d="M1104.9,143.4v3.6h2.9v2.8h-2.9v8.1c0,1.3,0.6,1.9,1.9,1.9c0.3,0,0.8,0,1-0.1v2.8c-0.4,0.1-1.1,0.1-1.9,0.1
			c-3.4,0-4.7-1.2-4.7-4.2v-8.6h-2.2v-2.8h2.2v-3.6H1104.9z"/>
		<path class="st0" d="M1123.7,158c-0.5,2.9-3.2,5-6.9,5c-4.7,0-7.5-3.1-7.5-8c0-4.9,2.8-8.1,7.3-8.1c4.4,0,7.2,3.1,7.2,7.8v1.2
			H1113v0.2c0,2.5,1.5,4.2,3.9,4.2c1.7,0,3-0.8,3.4-2.1H1123.7z M1113,153.3h7.3c-0.1-2.2-1.5-3.7-3.6-3.7
			C1114.6,149.6,1113.1,151.1,1113,153.3z"/>
		<path class="st0" d="M1131.9,157l-3.2,5.6h-3.9l5-7.7l-5-7.8h4.1l3.1,5.4h0.1l3.1-5.4h4l-5,7.7l4.9,7.9h-4L1131.9,157L1131.9,157z
			"/>
		<path class="st0" d="M1145.8,143.4v3.6h2.9v2.8h-2.9v8.1c0,1.3,0.6,1.9,1.9,1.9c0.3,0,0.8,0,1-0.1v2.8c-0.4,0.1-1.1,0.1-1.9,0.1
			c-3.4,0-4.7-1.2-4.7-4.2v-8.6h-2.2v-2.8h2.2v-3.6H1145.8z"/>
	</g>
	<rect x="859.9" y="20.8" class="st1" width="445.1" height="100.5"/>
	<g>
		<path d="M149.8,49.6L147,64.5h-5.4l4-14.9H149.8z M161.2,49.6l-2.8,14.9h-5.4l4-14.9H161.2z"/>
		<path d="M197.5,91.9V72.6h-23.2v19.2h-5.3V49.6h5.3v18.3h23.2V49.6h5.3v42.3H197.5z"/>
		<path d="M235.4,83.2c-0.9,5.3-6,9.3-12.7,9.3c-8.7,0-14-6.1-14-15.6c0-9.5,5.4-15.9,13.8-15.9c8.2,0,13.3,6,13.3,15.2V78H214v0.3
			c0,5.8,3.4,9.7,8.9,9.7c3.9,0,6.7-2,7.6-4.8H235.4z M214,74h16.6c-0.1-5.1-3.3-8.7-8.1-8.7C217.7,65.3,214.3,69,214,74z"/>
		<path d="M241.2,49.6h5.1v42.3h-5.1V49.6z"/>
		<path d="M253.5,49.6h5.1v42.3h-5.1V49.6z"/>
		<path d="M263.9,76.7c0-9.7,5.7-15.8,14.1-15.8c8.4,0,14.1,6,14.1,15.8c0,9.7-5.7,15.8-14.1,15.8C269.6,92.4,263.9,86.4,263.9,76.7
			z M287,76.7c0-7.2-3.5-11.3-8.9-11.3s-8.9,4.1-8.9,11.3s3.5,11.3,8.9,11.3S287,83.8,287,76.7z"/>
		<path d="M293.9,64.5l2.8-14.9h5.4l-4,14.9H293.9z M305.3,64.5l2.8-14.9h5.4l-4,14.9H305.3z"/>
	</g>
	<polygon class="st2" points="784.7,134.5 784.8,109.3 477.9,109.3 477.9,37.5 785.8,37.5 786.6,13.6 843,73.4 	"/>
</g>
</svg>
