<?xml version="1.0" encoding="utf-8"?>
<!-- Generator: Adobe Illustrator 23.0.2, SVG Export Plug-In . SVG Version: 6.00 Build 0)  -->
<svg version="1.1" id="Layer_1" xmlns="http://www.w3.org/2000/svg" xmlns:xlink="http://www.w3.org/1999/xlink" x="0px" y="0px"
	 viewBox="0 0 872.3 590.3" style="enable-background:new 0 0 872.3 590.3;" xml:space="preserve">
<style type="text/css">
	.st0{fill:none;stroke:#404343;stroke-width:10;stroke-miterlimit:10;}
	.st1{fill:#FFFFFF;stroke:#404343;stroke-width:10;stroke-miterlimit:10;}
	.st2{fill:#404343;}
</style>
<g>
	<circle class="st0" cx="437.5" cy="384.6" r="200.7"/>
	<path class="st1" d="M464.4,310.2c0,13-6.5,25.5-18.7,28c-1.8,0.4,66.6,105.5-8.2,105.5c-71.9,0-6.6-105.5-8.8-106.1
		c-11.5-3.1-18.1-14.9-18.1-27.4c0-14.9,12.1-26.9,26.9-26.9S464.4,295.4,464.4,310.2z"/>
	<circle class="st1" cx="541.3" cy="384.6" r="11.5"/>
	<g>
		<g>
			<path class="st0" d="M590.5,80.3c116.9,47.3,200.4,160.1,204.9,292.9"/>
			<g>
				<polygon class="st2" points="603,103.3 593.2,81.4 615.2,71.7 601.8,66.5 579.8,76.2 589.5,98.1 				"/>
			</g>
			<g>
				<polygon class="st2" points="778.1,353.6 795.3,370.2 812,352.9 812.2,367.3 795.6,384.6 778.3,368 				"/>
			</g>
		</g>
	</g>
	<g>
		<g>
			<path class="st0" d="M79.5,373.2c4.6-134.8,90.5-249,210.3-295"/>
			<g>
				<polygon class="st2" points="96.9,353.6 79.6,370.2 63,352.9 62.7,367.3 79.3,384.6 96.6,368 				"/>
			</g>
			<g>
				<polygon class="st2" points="276.9,101 287,79.2 265.3,69.2 278.8,64.2 300.5,74.3 290.5,96 				"/>
			</g>
		</g>
	</g>
	<g>
		<path class="st2" d="M25.7,440.5H0v-42.3h5.3v37.5h20.4V440.5z"/>
		<path class="st2" d="M28.3,425.2c0-9.7,5.7-15.8,14.1-15.8c8.4,0,14.1,6,14.1,15.8c0,9.7-5.7,15.8-14.1,15.8
			C34,441,28.3,434.9,28.3,425.2z M51.3,425.2c0-7.2-3.5-11.3-8.9-11.3s-8.9,4.1-8.9,11.3s3.5,11.3,8.9,11.3S51.3,432.4,51.3,425.2z
			"/>
		<path class="st2" d="M82,420c-0.7-3.3-3.3-6-7.8-6c-5.3,0-8.8,4.4-8.8,11.3c0,7.1,3.6,11.3,8.9,11.3c4.2,0,6.9-2.2,7.8-5.9h5
			c-0.8,6.1-5.9,10.3-12.8,10.3c-8.4,0-14.1-5.9-14.1-15.8c0-9.6,5.6-15.8,14-15.8c7.6,0,12.2,5,12.8,10.5H82z"/>
		<path class="st2" d="M110.5,410h6.2l-13.2,13.2l13.6,17.3h-5.9l-11.3-14.2l-2.8,2.7v11.5H92v-42.3h5.1v25.3L110.5,410z"/>
		<path class="st2" d="M144.6,431.8c-0.9,5.3-6,9.3-12.7,9.3c-8.7,0-14-6.1-14-15.6c0-9.5,5.4-15.9,13.8-15.9
			c8.2,0,13.3,6,13.3,15.2v1.9h-21.9v0.3c0,5.8,3.4,9.7,8.9,9.7c3.9,0,6.7-2,7.6-4.8H144.6z M123.1,422.6h16.6
			c-0.1-5.1-3.3-8.7-8.1-8.7C126.8,413.9,123.5,417.6,123.1,422.6z"/>
		<path class="st2" d="M148.6,425.2c0-9.6,5.2-15.8,12.9-15.8c4.4,0,7.9,2.1,9.7,5.5h0.1v-16.8h5.1v42.3h-4.9v-5.2h-0.1
			c-2,3.5-5.4,5.7-9.8,5.7C153.9,441,148.6,434.8,148.6,425.2z M153.8,425.2c0,6.9,3.4,11.3,8.8,11.3c5.2,0,8.8-4.5,8.8-11.3
			c0-6.8-3.5-11.3-8.8-11.3C157.2,414,153.8,418.4,153.8,425.2z"/>
	</g>
	<g>
		<path class="st2" d="M721.5,440.5h-25.7v-42.3h5.3v37.5h20.4V440.5z"/>
		<path class="st2" d="M724.2,425.2c0-9.7,5.7-15.8,14.1-15.8c8.4,0,14.1,6,14.1,15.8c0,9.7-5.7,15.8-14.1,15.8
			C729.8,441,724.2,434.9,724.2,425.2z M747.2,425.2c0-7.2-3.5-11.3-8.9-11.3s-8.9,4.1-8.9,11.3s3.5,11.3,8.9,11.3
			S747.2,432.4,747.2,425.2z"/>
		<path class="st2" d="M777.8,420c-0.7-3.3-3.3-6-7.8-6c-5.3,0-8.8,4.4-8.8,11.3c0,7.1,3.6,11.3,8.9,11.3c4.2,0,6.9-2.2,7.8-5.9h5
			c-0.8,6.1-5.9,10.3-12.8,10.3c-8.4,0-14.1-5.9-14.1-15.8c0-9.6,5.6-15.8,14-15.8c7.6,0,12.2,5,12.8,10.5H777.8z"/>
		<path class="st2" d="M806.4,410h6.2l-13.2,13.2l13.6,17.3h-5.9l-11.3-14.2l-2.8,2.7v11.5h-5.1v-42.3h5.1v25.3L806.4,410z"/>
		<path class="st2" d="M840.4,431.8c-0.9,5.3-6,9.3-12.7,9.3c-8.7,0-14-6.1-14-15.6c0-9.5,5.4-15.9,13.8-15.9
			c8.2,0,13.3,6,13.3,15.2v1.9H819v0.3c0,5.8,3.4,9.7,8.9,9.7c3.9,0,6.7-2,7.6-4.8H840.4z M819,422.6h16.6c-0.1-5.1-3.3-8.7-8.1-8.7
			C822.7,413.9,819.3,417.6,819,422.6z"/>
		<path class="st2" d="M844.5,425.2c0-9.6,5.2-15.8,12.9-15.8c4.4,0,7.9,2.1,9.7,5.5h0.1v-16.8h5.1v42.3h-4.9v-5.2h-0.1
			c-2,3.5-5.4,5.7-9.8,5.7C849.7,441,844.5,434.8,844.5,425.2z M849.7,425.2c0,6.9,3.4,11.3,8.8,11.3c5.2,0,8.8-4.5,8.8-11.3
			c0-6.8-3.5-11.3-8.8-11.3C853.1,414,849.7,418.4,849.7,425.2z"/>
	</g>
	<g>
		<path class="st2" d="M327.3,27.1c0,6.4,4.2,11,11.5,11s11.5-4.6,11.5-11V0h5.3v27.5c0,9-6.3,15.5-16.8,15.5S322,36.5,322,27.5V0
			h5.3V27.1z"/>
		<path class="st2" d="M363,11.8h4.8v4.9h0.1c1.7-3.3,5-5.4,9.7-5.4c6.7,0,10.5,4.3,10.5,11.2v19.8H383V23.4c0-4.9-2.3-7.6-7-7.6
			c-4.8,0-7.9,3.4-7.9,8.6v17.9H363V11.8z"/>
		<path class="st2" d="M394.9,0h5.1v42.3h-5.1V0z"/>
		<path class="st2" d="M405.4,27c0-9.7,5.7-15.8,14.1-15.8c8.4,0,14.1,6,14.1,15.8c0,9.7-5.7,15.8-14.1,15.8
			C411,42.8,405.4,36.7,405.4,27z M428.4,27c0-7.2-3.5-11.3-8.9-11.3s-8.9,4.1-8.9,11.3s3.5,11.3,8.9,11.3S428.4,34.2,428.4,27z"/>
		<path class="st2" d="M459,21.8c-0.7-3.3-3.3-6-7.8-6c-5.3,0-8.8,4.4-8.8,11.3c0,7.1,3.6,11.3,8.9,11.3c4.2,0,6.9-2.2,7.8-5.9h5
			c-0.8,6.1-5.9,10.3-12.8,10.3c-8.4,0-14.1-5.9-14.1-15.8c0-9.6,5.6-15.8,14-15.8c7.6,0,12.2,5,12.8,10.5H459z"/>
		<path class="st2" d="M487.6,11.8h6.2L480.6,25l13.6,17.3h-5.9L477,28.1l-2.8,2.7v11.5H469V0h5.1v25.3L487.6,11.8z"/>
		<path class="st2" d="M521.6,33.5c-0.9,5.3-6,9.3-12.7,9.3c-8.7,0-14-6.1-14-15.6c0-9.5,5.4-15.9,13.8-15.9c8.2,0,13.3,6,13.3,15.2
			v1.9h-21.9v0.3c0,5.8,3.4,9.7,8.9,9.7c3.9,0,6.7-2,7.6-4.8H521.6z M500.2,24.4h16.6c-0.1-5.1-3.3-8.7-8.1-8.7
			C503.8,15.7,500.5,19.4,500.2,24.4z"/>
		<path class="st2" d="M525.6,27c0-9.6,5.2-15.8,12.9-15.8c4.4,0,7.9,2.1,9.7,5.5h0.1V0h5.1v42.3h-4.9v-5.2h-0.1
			c-2,3.5-5.4,5.7-9.8,5.7C530.9,42.8,525.6,36.6,525.6,27z M530.9,27c0,6.9,3.4,11.3,8.8,11.3c5.2,0,8.8-4.5,8.8-11.3
			c0-6.8-3.5-11.3-8.8-11.3C534.3,15.8,530.9,20.2,530.9,27z"/>
	</g>
	<g>
		<path class="st2" d="M421.8,123.8V81.5h18.4c7.9,0,12.9,4.1,12.9,10.5c0,4.6-3.5,8.5-7.9,9.2v0.2c5.7,0.4,10,4.6,10,10.2
			c0,7.4-5.6,12.1-14.6,12.1H421.8z M430.7,99.1h6.4c4.7,0,7.4-2.1,7.4-5.7c0-3.4-2.4-5.3-6.5-5.3h-7.3V99.1z M438.3,117.2
			c5.1,0,7.9-2.2,7.9-6.2c0-4-2.8-6.1-8.1-6.1h-7.4v12.3H438.3z"/>
	</g>
	<g>
		<path class="st2" d="M86.6,510.9H71.7l-3.2,10.3h-9.1l14.7-42.3h10.4l14.7,42.3h-9.4L86.6,510.9z M73.7,504.3h11L79.3,487h-0.2
			L73.7,504.3z"/>
	</g>
	<g>
		<path class="st2" d="M776.5,500c0-13.6,7.8-21.9,20-21.9c10.2,0,17.9,6.4,18.6,15.9h-8.6c-0.8-5.2-4.8-8.6-10-8.6
			c-6.7,0-11,5.6-11,14.5c0,9,4.2,14.6,11,14.6c5.2,0,9-3.1,10-8.1h8.6c-1,9.4-8.2,15.4-18.6,15.4
			C784.2,521.9,776.5,513.7,776.5,500z"/>
	</g>
</g>
</svg>
